<mxfile host="65bd71144e">
    <diagram id="HMDd3VgaN3B1fi6phxCU" name="第 1 页">
        <mxGraphModel dx="964" dy="650" grid="1" gridSize="10" guides="1" tooltips="1" connect="1" arrows="1" fold="1" page="1" pageScale="1" pageWidth="827" pageHeight="1169" math="0" shadow="0">
            <root>
                <mxCell id="0"/>
                <mxCell id="1" parent="0"/>
                <mxCell id="38" value="" style="rounded=0;whiteSpace=wrap;html=1;" vertex="1" parent="1">
                    <mxGeometry x="510" y="240" width="225" height="80" as="geometry"/>
                </mxCell>
                <mxCell id="47" value="获取元信息" style="edgeStyle=orthogonalEdgeStyle;rounded=0;orthogonalLoop=1;jettySize=auto;html=1;entryX=0.009;entryY=0.844;entryDx=0;entryDy=0;entryPerimeter=0;startArrow=none;startFill=0;endArrow=classic;endFill=1;" edge="1" parent="1" source="36" target="35">
                    <mxGeometry relative="1" as="geometry">
                        <Array as="points">
                            <mxPoint x="420" y="176"/>
                            <mxPoint x="420" y="176"/>
                        </Array>
                    </mxGeometry>
                </mxCell>
                <mxCell id="36" value="" style="rounded=0;whiteSpace=wrap;html=1;" vertex="1" parent="1">
                    <mxGeometry x="300" y="100" width="100" height="220" as="geometry"/>
                </mxCell>
                <mxCell id="46" value="报表至存储节点" style="edgeStyle=orthogonalEdgeStyle;rounded=0;orthogonalLoop=1;jettySize=auto;html=1;startArrow=none;startFill=0;endArrow=classic;endFill=1;exitX=0.5;exitY=0;exitDx=0;exitDy=0;" edge="1" parent="1" source="38" target="35">
                    <mxGeometry relative="1" as="geometry"/>
                </mxCell>
                <mxCell id="35" value="" style="rounded=0;whiteSpace=wrap;html=1;" vertex="1" parent="1">
                    <mxGeometry x="510" y="100" width="225" height="90" as="geometry"/>
                </mxCell>
                <mxCell id="44" value="负载一个compute发送数据" style="edgeStyle=orthogonalEdgeStyle;rounded=0;orthogonalLoop=1;jettySize=auto;html=1;entryX=0.5;entryY=1;entryDx=0;entryDy=0;startArrow=none;startFill=0;endArrow=classic;endFill=1;" edge="1" parent="1" source="2" target="38">
                    <mxGeometry relative="1" as="geometry">
                        <Array as="points">
                            <mxPoint x="623" y="365"/>
                        </Array>
                    </mxGeometry>
                </mxCell>
                <mxCell id="2" value="client" style="rounded=0;whiteSpace=wrap;html=1;" vertex="1" parent="1">
                    <mxGeometry x="300" y="410" width="450" height="60" as="geometry"/>
                </mxCell>
                <mxCell id="43" value="注册" style="edgeStyle=orthogonalEdgeStyle;rounded=0;orthogonalLoop=1;jettySize=auto;html=1;entryX=0.99;entryY=0.823;entryDx=0;entryDy=0;entryPerimeter=0;startArrow=none;startFill=0;endArrow=classic;endFill=1;exitX=0;exitY=0.5;exitDx=0;exitDy=0;" edge="1" parent="1" source="38" target="36">
                    <mxGeometry x="0.09" y="9" relative="1" as="geometry">
                        <mxPoint x="460" y="281" as="sourcePoint"/>
                        <Array as="points">
                            <mxPoint x="510" y="281"/>
                        </Array>
                        <mxPoint as="offset"/>
                    </mxGeometry>
                </mxCell>
                <mxCell id="3" value="compute" style="rounded=0;whiteSpace=wrap;html=1;" vertex="1" parent="1">
                    <mxGeometry x="530" y="260" width="75" height="50" as="geometry"/>
                </mxCell>
                <mxCell id="41" style="edgeStyle=orthogonalEdgeStyle;rounded=0;orthogonalLoop=1;jettySize=auto;html=1;entryX=1;entryY=0.205;entryDx=0;entryDy=0;entryPerimeter=0;startArrow=none;startFill=0;endArrow=classic;endFill=1;exitX=0;exitY=0.5;exitDx=0;exitDy=0;" edge="1" parent="1" source="35" target="36">
                    <mxGeometry relative="1" as="geometry">
                        <mxPoint x="460" y="145" as="sourcePoint"/>
                    </mxGeometry>
                </mxCell>
                <mxCell id="4" value="storage" style="rounded=0;whiteSpace=wrap;html=1;" vertex="1" parent="1">
                    <mxGeometry x="530" y="120" width="75" height="50" as="geometry"/>
                </mxCell>
                <mxCell id="5" value="guarder" style="rounded=0;whiteSpace=wrap;html=1;" vertex="1" parent="1">
                    <mxGeometry x="314" y="185" width="70" height="50" as="geometry"/>
                </mxCell>
                <mxCell id="11" value="获取coupute的ip列表" style="rounded=0;orthogonalLoop=1;jettySize=auto;html=1;startArrow=none;startFill=0;exitX=0.5;exitY=1;exitDx=0;exitDy=0;" edge="1" parent="1" source="36">
                    <mxGeometry relative="1" as="geometry">
                        <mxPoint x="265" y="240" as="sourcePoint"/>
                        <mxPoint x="350" y="409" as="targetPoint"/>
                    </mxGeometry>
                </mxCell>
                <mxCell id="8" value="compute" style="rounded=0;whiteSpace=wrap;html=1;" vertex="1" parent="1">
                    <mxGeometry x="625" y="260" width="85" height="50" as="geometry"/>
                </mxCell>
                <mxCell id="10" value="storage" style="rounded=0;whiteSpace=wrap;html=1;" vertex="1" parent="1">
                    <mxGeometry x="625" y="120" width="85" height="50" as="geometry"/>
                </mxCell>
                <mxCell id="37" value="guarder" style="rounded=0;whiteSpace=wrap;html=1;" vertex="1" parent="1">
                    <mxGeometry x="314" y="255" width="70" height="50" as="geometry"/>
                </mxCell>
                <mxCell id="39" value="guarder" style="rounded=0;whiteSpace=wrap;html=1;" vertex="1" parent="1">
                    <mxGeometry x="314" y="115" width="70" height="50" as="geometry"/>
                </mxCell>
                <mxCell id="42" value="注册" style="text;html=1;align=center;verticalAlign=middle;resizable=0;points=[];autosize=1;strokeColor=none;" vertex="1" parent="1">
                    <mxGeometry x="430" y="130" width="40" height="20" as="geometry"/>
                </mxCell>
                <mxCell id="49" value="每一个compute都持有集群的所有信息" style="text;html=1;align=center;verticalAlign=middle;resizable=0;points=[];autosize=1;strokeColor=none;" vertex="1" parent="1">
                    <mxGeometry x="665" y="200" width="220" height="20" as="geometry"/>
                </mxCell>
                <mxCell id="51" value="获取元信息" style="edgeStyle=orthogonalEdgeStyle;rounded=0;orthogonalLoop=1;jettySize=auto;html=1;entryX=0;entryY=0.25;entryDx=0;entryDy=0;startArrow=none;startFill=0;endArrow=classic;endFill=1;" edge="1" parent="1" target="38">
                    <mxGeometry relative="1" as="geometry">
                        <mxPoint x="404" y="260" as="sourcePoint"/>
                        <mxPoint x="496.0250000000001" y="260.00000000000006" as="targetPoint"/>
                        <Array as="points"/>
                    </mxGeometry>
                </mxCell>
            </root>
        </mxGraphModel>
    </diagram>
</mxfile>